<?xml version="1.0" encoding="iso-8859-1"?>
<!-- Generator: Adobe Illustrator 19.0.0, SVG Export Plug-In . SVG Version: 6.00 Build 0)  -->
<svg version="1.1" id="Capa_1" xmlns="http://www.w3.org/2000/svg" xmlns:xlink="http://www.w3.org/1999/xlink" x="0px" y="0px"
	 viewBox="0 0 512 512" style="enable-background:new 0 0 512 512;" xml:space="preserve">
<polygon style="fill:#C8D2DC;" points="45.299,158.746 65.922,133.246 43.173,49.723 22.55,75.222 "/>
<path style="fill:#FFB69E;" d="M173.031,512c-13.476,0-24.399-10.924-24.399-24.399v-195.03c0-13.475,10.923-24.399,24.399-24.399
	c13.476,0,24.399,10.924,24.399,24.399V487.6C197.431,501.076,186.508,512,173.031,512z"/>
<path style="fill:#FFA385;" d="M232.365,512c-13.476,0-24.399-10.924-24.399-24.399v-195.03c0-13.475,10.923-24.399,24.399-24.399
	c13.476,0,24.399,10.924,24.399,24.399V487.6C256.765,501.076,245.841,512,232.365,512z"/>
<circle style="fill:#FFB69E;" cx="203.733" cy="42.141" r="42.141"/>
<path style="fill:#FFB69E;" d="M367.923,180.376l-66.58,2.353c-6.519-18.25-11.675-32.89-15.372-43.645
	c-9.434-27.451-25.251-41.37-47.014-41.37h-42.521h-13.776h-14.154c-21.762,0-37.581,13.919-47.014,41.37
	c-4.101,11.933-7.021,20.312-11.016,31.528l-55.993-28.504c-10.01-5.096-22.251-1.111-27.344,8.896
	c-5.095,10.007-1.112,22.25,8.895,27.344l76.562,38.976c2.89,1.471,6.053,2.213,9.225,2.213c2.535,0,5.076-0.474,7.486-1.428
	c5.424-2.149,9.665-6.523,11.642-12.013c2.073-5.753,3.855-10.71,5.451-15.167L123.06,326.651
	c-1.354,6.994,4.036,13.456,11.089,13.456c25.439,0,106.468,0,139.165,0c7.077,0,12.445-6.457,11.089-13.456l-23.37-135.884
	c2.184,6.129,4.528,12.682,7.039,19.677c2.907,8.097,10.58,13.463,19.132,13.463c0.24,0,0.482-0.004,0.723-0.013l81.43-2.878
	c11.222-0.396,19.998-9.816,19.602-21.039C388.566,188.756,379.173,179.979,367.923,180.376z"/>
<path style="fill:#414B82;" d="M367.923,180.376l-66.58,2.353c-6.519-18.25-11.675-32.89-15.372-43.645
	c-9.434-27.451-25.251-41.37-47.014-41.37h-16.653c0.006,0.095,0.021,0.188,0.025,0.285c0.461,10.291-9.088,19.056-19.056,19.056
	c-10.683,0-18.593-8.732-19.056-19.056c-0.004-0.095-0.002-0.189-0.004-0.285h-15.706c-21.762,0-37.581,13.919-47.014,41.37
	c-4.101,11.933-7.021,20.312-11.016,31.528l-55.993-28.504l-18.449,36.24l76.562,38.976c10.855,5.526,24.193,0.323,28.353-11.228
	c2.073-5.753,3.855-10.71,5.451-15.167L123.06,326.652c-1.354,6.994,4.036,13.456,11.089,13.456h139.165
	c7.077,0,12.445-6.457,11.089-13.456l-23.37-135.884c2.184,6.129,4.528,12.682,7.039,19.677c2.907,8.097,10.58,13.463,19.132,13.463
	c0.24,0,0.482-0.004,0.723-0.013l81.43-2.878L367.923,180.376z"/>
<polygon style="fill:#E6EBF0;" points="45.299,158.746 88.256,172.024 65.507,88.5 22.55,75.222 "/>
<path style="fill:#323E6D;" d="M367.923,180.376l-66.58,2.353c-6.519-18.25-11.675-32.89-15.372-43.645
	c-9.434-27.451-25.251-41.37-47.014-41.37h-16.653c0.006,0.095,0.021,0.188,0.025,0.285c0.461,10.291-9.088,19.056-19.056,19.056
	c-0.196,0-0.383-0.023-0.576-0.029v223.084h70.618c7.077,0,12.445-6.457,11.089-13.456l-23.37-135.884
	c2.184,6.129,4.528,12.682,7.039,19.677c2.907,8.097,10.58,13.463,19.132,13.463c0.24,0,0.482-0.004,0.723-0.013l81.43-2.878
	L367.923,180.376z"/>
<path style="fill:#823214;" d="M487.965,103.746l-113.09,95.796c-4.273,3.62-10.671,3.09-14.29-1.183
	c-3.62-4.273-3.09-10.67,1.183-14.29c0.203-0.171,0.428-0.345,0.639-0.498l120.381-86.455c1.888-1.356,4.518-0.925,5.874,0.963
	C489.951,99.87,489.615,102.341,487.965,103.746z"/>
<polygon style="fill:#FFFFFF;" points="174.825,97.714 202.695,170.854 230.572,97.714 "/>
<path style="fill:#FFC305;" d="M214.817,122.612l-6.192-11.262l5.336-9.705c0.971-1.766-0.308-3.932-2.325-3.932h-17.888
	c-2.014,0-3.297,2.164-2.325,3.932l5.354,9.738l-6.175,11.23c-0.855,1.555-1.133,3.361-0.785,5.102l3.809,19.334l9.068,23.806
	l9.077-23.81l3.829-19.328C215.951,125.975,215.673,124.168,214.817,122.612z"/>
<path style="fill:#FA870A;" d="M214.817,122.612l-6.192-11.262l5.336-9.705c0.971-1.765-0.308-3.932-2.325-3.932h-8.942v73.125
	v0.015l9.077-23.81l3.829-19.328C215.951,125.975,215.673,124.168,214.817,122.612z"/>
<g>
</g>
<g>
</g>
<g>
</g>
<g>
</g>
<g>
</g>
<g>
</g>
<g>
</g>
<g>
</g>
<g>
</g>
<g>
</g>
<g>
</g>
<g>
</g>
<g>
</g>
<g>
</g>
<g>
</g>
</svg>
